<svg viewBox="0 0 24 24" fill="none" stroke="currentColor" stroke-width="1.5" stroke-linecap="round" stroke-linejoin="round" xmlns="http://www.w3.org/2000/svg">
  <g id="clipboard">
    <path stroke-linecap="round" stroke-linejoin="round" d="M15.666 3.888A2.25 2.25 0 0 0 13.5 2.25h-3c-1.03 0-1.9.693-2.166 1.638m7.332 0c.055.194.084.4.084.612v.75c0 1.03-.693 1.9-1.638 2.166m-7.332 0c-.194.055-.4.084-.612.084v-.75c0-1.03.693-1.9 1.638-2.166m7.332 0c.055-.194.084-.4.084-.612V4.5c0-1.03-.693-1.9-1.638-2.166m-7.332 0c-.194-.055-.4-.084-.612-.084v.75c0 1.03.693-1.9 1.638 2.166"/>
  </g>
</svg>
