<svg xmlns="http://www.w3.org/2000/svg" width="20" height="17" viewBox="0 0 20 17">
  <g id="info">
    <path fill="currentColor" d="M13,13.5A3.5,3.5,0,1,1,16.5,17,3.5,3.5,0,0,1,13,13.5Zm3,0v2a.5.5,0,1,0,1,0v-2a.5.5,0,1,0-1,0Zm0-2a.5.5,0,1,0,.5-.5A.5.5,0,0,0,16,11.5ZM12,14H2.25A2.252,2.252,0,0,1,0,11.75V2.25A2.253,2.253,0,0,1,2.25,0h13.5A2.253,2.253,0,0,1,18,2.25V9.1A5.064,5.064,0,0,0,17,9a4.89,4.89,0,0,0-.5.025V2.25a.751.751,0,0,0-.75-.75H2.25a.751.751,0,0,0-.75.75V8.461L3.409,6.552a2.3,2.3,0,0,1,3.181,0L9.824,9.785A.251.251,0,0,0,10,9.857a.256.256,0,0,0,.178-.073l1.231-1.232a2.252,2.252,0,0,1,3.182,0l.735.735a5.008,5.008,0,0,0-1.373.748l-.422-.422a.749.749,0,0,0-1.061,0l-1.232,1.232a1.755,1.755,0,0,1-2.473,0L5.53,7.612a.751.751,0,0,0-1.061,0L1.5,10.582V11.75a.751.751,0,0,0,.75.75h9.978A5.005,5.005,0,0,0,12,14h0ZM10.5,4.522a1.5,1.5,0,1,1,1.5,1.5A1.5,1.5,0,0,1,10.5,4.522Z"/>
  </g>
</svg>
