<svg xmlns="http://www.w3.org/2000/svg" width="22" height="20" viewBox="0 0 22 20">
  <g id="reference">
    <path fill="currentColor" d="M.22,19.031a.751.751,0,0,1,0-1.061L4.69,13.5H2.257a.75.75,0,0,1,0-1.5H6.5a.751.751,0,0,1,.751.751v4.243a.75.75,0,0,1-1.5,0V14.56l-4.469,4.47a.751.751,0,0,1-1.061,0ZM9,14V12.5H19.75a.737.737,0,0,0,.481-.187l-2.7-2.7a.749.749,0,0,0-1.061,0l-1.232,1.232a1.755,1.755,0,0,1-2.473,0L9.53,7.612a.751.751,0,0,0-1.061,0L6.082,10H4V2.25A2.253,2.253,0,0,1,6.25,0h13.5A2.253,2.253,0,0,1,22,2.25v9.5A2.252,2.252,0,0,1,19.75,14Zm9.59-5.449,1.909,1.91V2.25a.75.75,0,0,0-.75-.75H6.25a.751.751,0,0,0-.75.75V8.461L7.409,6.552a2.3,2.3,0,0,1,3.182,0l3.233,3.233a.253.253,0,0,0,.355,0l1.231-1.232a2.252,2.252,0,0,1,3.182,0ZM14.5,4.522a1.5,1.5,0,1,1,1.5,1.5A1.5,1.5,0,0,1,14.5,4.522Z"/>
  </g>
</svg>
