<svg xmlns="http://www.w3.org/2000/svg" width="20" height="20" viewBox="0 0 20 20">
  <g id="accessibility">
    <path fill="currentColor" d="M13.917,8.15a14.509,14.509,0,0,1-2.1.43.514.514,0,0,0-.44.5v1.14a1.254,1.254,0,0,0,.03.27l1.22,4.31a.756.756,0,0,1-.72.95.768.768,0,0,1-.73-.55l-.91-3.25a.282.282,0,0,0-.54,0l-.91,3.25a.768.768,0,0,1-.73.55.756.756,0,0,1-.72-.95l1.22-4.31a1.256,1.256,0,0,0,.03-.27V9.08a.5.5,0,0,0-.44-.49,11.847,11.847,0,0,1-2.11-.45.748.748,0,0,1,.47-1.42A12.674,12.674,0,0,0,10,7.21a12.859,12.859,0,0,0,3.46-.49.754.754,0,0,1,.95.48A.764.764,0,0,1,13.917,8.15Z"/>
    <path d="M10,6.25A1.25,1.25,0,1,0,8.75,5,1.25,1.25,0,0,0,10,6.25Z"/>
    <path d="M10,18.75A8.75,8.75,0,1,1,18.75,10,8.759,8.759,0,0,1,10,18.75Zm0-16A7.25,7.25,0,1,0,17.25,10,7.258,7.258,0,0,0,10,2.75Z"/>
  </g>
</svg>
