<svg width="20" height="20" viewBox="0 0 20 20" fill="none" xmlns="http://www.w3.org/2000/svg">
  <g id="video">
    <path d="M17.5,2.5H2.5a.5.5,0,0,0-.5.5v14a.5.5,0,0,0,.5.5h15a.5.5,0,0,0,.5-.5V3A.5.5,0,0,0,17.5,2.5ZM5.5,16.25a.25.25,0,0,1-.25.25H3.75A.25.25,0,0,1,3.5,16.25v-1.5A.25.25,0,0,1,3.75,14.5h1.5a.25.25,0,0,1,.25.25Zm0-3.353a.25.25,0,0,1-.25.25H3.75a.25.25,0,0,1-.25-.25v-1.5a.25.25,0,0,1,.25-.25h1.5a.25.25,0,0,1,.25.25ZM5.5,9.603a.25.25,0,0,1-.25.25H3.75A.25.25,0,0,1,3.5,9.603v-1.5a.25.25,0,0,1,.25-.25h1.5a.25.25,0,0,1,.25.25ZM5.5,6.25A.25.25,0,0,1,5.25,6.5H3.75A.25.25,0,0,1,3.5,6.25V4.75A.25.25,0,0,1,3.75,4.5h1.5A.25.25,0,0,1,5.5,4.75ZM13.5,16.5H7.5V11.5h6Zm0-7.5H7.5V4.5h6Zm3.5,7.25a.25.25,0,0,1-.25.25h-1.5a.25.25,0,0,1-.25-.25v-1.5a.25.25,0,0,1,.25-.25h1.5a.25.25,0,0,1,.25.25Zm0-3.353a.25.25,0,0,1-.25.25h-1.5a.25.25,0,0,1-.25-.25v-1.5a.25.25,0,0,1,.25-.25h1.5a.25.25,0,0,1,.25.25Zm0-3.294a.25.25,0,0,1-.25.25h-1.5a.25.25,0,0,1-.25-.25v-1.5a.25.25,0,0,1,.25-.25h1.5a.25.25,0,0,1,.25.25ZM17,6.25a.25.25,0,0,1-.25.25h-1.5A.25.25,0,0,1,15,6.25V4.75A.25.25,0,0,1,15.25,4.5h1.5a.25.25,0,0,1,.25.25Z" fill="currentColor"/>
  </g>
</svg>
